<?xml version="1.0" encoding="UTF-8" standalone="no"?>
<!-- Created with Inkscape (http://www.inkscape.org/) -->

<svg
   width="38.099682mm"
   height="54.241596mm"
   viewBox="0 0 38.099682 54.241596"
   version="1.1"
   id="svg20996"
   inkscape:version="1.2.2 (b0a8486541, 2022-12-01)"
   sodipodi:docname="penpet-ux.svg"
   xmlns:inkscape="http://www.inkscape.org/namespaces/inkscape"
   xmlns:sodipodi="http://sodipodi.sourceforge.net/DTD/sodipodi-0.dtd"
   xmlns="http://www.w3.org/2000/svg"
   xmlns:svg="http://www.w3.org/2000/svg">
  <sodipodi:namedview
     id="namedview20998"
     pagecolor="#ffffff"
     bordercolor="#000000"
     borderopacity="0.25"
     inkscape:showpageshadow="2"
     inkscape:pageopacity="0.0"
     inkscape:pagecheckerboard="0"
     inkscape:deskcolor="#d1d1d1"
     inkscape:document-units="mm"
     showgrid="false"
     inkscape:zoom="3.659624"
     inkscape:cx="34.703019"
     inkscape:cy="120.64081"
     inkscape:window-width="2560"
     inkscape:window-height="1371"
     inkscape:window-x="0"
     inkscape:window-y="0"
     inkscape:window-maximized="1"
     inkscape:current-layer="fills-e5305367-cb53-80dc-8005-e4157446fd35" />
  <defs
     id="defs20993">
    <clipPath
       id="inner-stroke-render-3488-e5305367-cb53-80dc-8005-e4157446fd36-0">
      <use
         href="#stroke-shape-render-3488-e5305367-cb53-80dc-8005-e4157446fd36-0"
         id="use21852" />
    </clipPath>
    <path
       d="m 531.07239,-495.64188 29.60742,-0.66476 c 0,0 38.89075,35.68353 81.0954,19.05978 42.20257,-16.62155 26.9563,-62.05374 6.85028,-70.91885 -20.10816,-8.86511 -31.59796,-9.97382 -31.37775,-22.82758 0.22022,-12.85595 44.17383,-15.83758 20.42249,-58.03161 -2.93958,-5.22223 -11.9635,-27.38587 -5,-23.02838 16,10.01233 21,-9.01105 11,-12.01477 -20.63227,-6.19733 -27,-9.01111 -27,-9.01111 0,0 -39,-11.01355 -53,11.01355 -5.22974,8.2323 0,13.01605 -6,17.02099 -4.76862,3.18103 -18,6.00739 -13,23.02832 0.79028,2.69031 -15.63275,2.76581 -10,24.02961 1.80072,6.79785 12,15.01849 22,18.02221 12.53686,3.76569 19,-1.00122 17.81268,1.84949 -7.92541,19.02716 -48.02008,13.43707 -47.81268,49.40369 0.2052,35.96658 4.40216,33.06942 4.40216,33.06942 v 0"
       style="fill:none;stroke:#2f226c;stroke-width:6.01394;stroke-opacity:1"
       id="stroke-shape-render-3488-e5305367-cb53-80dc-8005-e4157446fd36-0" />
    <clipPath
       id="inner-stroke-render-3490-e5305367-cb53-80dc-8005-e4157446fd38-0">
      <use
         href="#stroke-shape-render-3490-e5305367-cb53-80dc-8005-e4157446fd38-0"
         id="use21882" />
    </clipPath>
    <path
       d="m 617.54694,-636.13165 c 1.65796,-3.13172 0.42138,-7.09827 -2.76447,-8.86176 -3.18591,-1.76343 -7.11407,-0.65399 -8.77203,2.47779 -1.65973,3.13171 -0.42322,7.09997 2.76269,8.86169 3.18592,1.76349 7.11408,0.65399 8.77381,-2.47772 z"
       style="fill:none;stroke:#2f226c;stroke-width:6.01394;stroke-opacity:1"
       id="stroke-shape-render-3490-e5305367-cb53-80dc-8005-e4157446fd38-0" />
  </defs>
  <g
     inkscape:label="Layer 1"
     inkscape:groupmode="layer"
     id="layer1"
     transform="translate(-105.59157,-123.54915)">
    <g
       id="shape-e5305367-cb53-80dc-8005-e4157446fd33"
       rx="0"
       ry="0"
       transform="matrix(0.26458333,0,0,0.26458333,-33.491796,302.62776)"
       style="fill:none;stroke:#000000;stroke-width:2;stroke-dasharray:none">
      <defs
         id="defs21843" />
      <g
         id="shape-e5305367-cb53-80dc-8005-e4157446fd34"
         rx="0"
         ry="0"
         style="fill:none;stroke:#000000;stroke-width:2;stroke-dasharray:none">
        <defs
           id="defs21845" />
        <g
           id="shape-e5305367-cb53-80dc-8005-e4157446fd36"
           style="opacity:1;fill:none;stroke:#000000;stroke-width:2;stroke-dasharray:none">
          <defs
             id="defs21847" />
          <g
             class="fills"
             id="fills-e5305367-cb53-80dc-8005-e4157446fd36"
             style="fill:none;stroke:#000000;stroke-width:2;stroke-dasharray:none" />
          <g
             id="strokes-213942e7-7893-80ea-8006-816f048d6057-e5305367-cb53-80dc-8005-e4157446fd36"
             class="strokes"
             style="fill:none;stroke:#000000;stroke-width:2;stroke-dasharray:none">
            <g
               class="inner-stroke-shape"
               id="g21860"
               style="fill:none;stroke:#000000;stroke-width:2;stroke-dasharray:none">
              <defs
                 id="defs21856">
                <clipPath
                   id="clipPath21933">
                  <use
                     href="#stroke-shape-render-3488-e5305367-cb53-80dc-8005-e4157446fd36-0"
                     id="use21931" />
                </clipPath>
                <path
                   d="m 531.07239,-495.64188 29.60742,-0.66476 c 0,0 38.89075,35.68353 81.0954,19.05978 42.20257,-16.62155 26.9563,-62.05374 6.85028,-70.91885 -20.10816,-8.86511 -31.59796,-9.97382 -31.37775,-22.82758 0.22022,-12.85595 44.17383,-15.83758 20.42249,-58.03161 -2.93958,-5.22223 -11.9635,-27.38587 -5,-23.02838 16,10.01233 21,-9.01105 11,-12.01477 -20.63227,-6.19733 -27,-9.01111 -27,-9.01111 0,0 -39,-11.01355 -53,11.01355 -5.22974,8.2323 0,13.01605 -6,17.02099 -4.76862,3.18103 -18,6.00739 -13,23.02832 0.79028,2.69031 -15.63275,2.76581 -10,24.02961 1.80072,6.79785 12,15.01849 22,18.02221 12.53686,3.76569 19,-1.00122 17.81268,1.84949 -7.92541,19.02716 -48.02008,13.43707 -47.81268,49.40369 0.2052,35.96658 4.40216,33.06942 4.40216,33.06942 v 0"
                   style="fill:none;stroke:#2f226c;stroke-width:6.01394;stroke-opacity:1"
                   id="path21935" />
              </defs>
              <use
                 href="#stroke-shape-render-3488-e5305367-cb53-80dc-8005-e4157446fd36-0"
                 clip-path="url(#inner-stroke-render-3488-e5305367-cb53-80dc-8005-e4157446fd36-0)"
                 id="use21858"
                 style="fill:none;stroke:#000000;stroke-width:2;stroke-dasharray:none" />
            </g>
          </g>
        </g>
        <g
           id="shape-e5305367-cb53-80dc-8005-e4157446fd37"
           style="fill:none;stroke:#000000;stroke-width:2;stroke-dasharray:none">
          <defs
             id="defs21864" />
          <g
             class="fills"
             id="fills-e5305367-cb53-80dc-8005-e4157446fd37"
             style="fill:none;stroke:#000000;stroke-width:2;stroke-dasharray:none" />
          <g
             style="clip-rule:evenodd;fill:none;fill-rule:nonzero;stroke:#000000;stroke-width:2;stroke-linejoin:round;stroke-dasharray:none"
             stroke-miterlimit="10"
             fill="none"
             id="strokes-213942e7-7893-80ea-8006-816f048d93b2-e5305367-cb53-80dc-8005-e4157446fd37"
             class="strokes">
            <g
               class="stroke-shape"
               id="g21873"
               style="fill:none;stroke:#000000;stroke-width:2;stroke-dasharray:none">
              <defs
                 id="defs21869" />
            </g>
          </g>
        </g>
        <g
           id="shape-e5305367-cb53-80dc-8005-e4157446fd38"
           style="fill:none;stroke:#000000;stroke-width:2;stroke-dasharray:none">
          <defs
             id="defs21877" />
          <g
             class="fills"
             id="fills-e5305367-cb53-80dc-8005-e4157446fd38"
             style="fill:none;stroke:#000000;stroke-width:2;stroke-dasharray:none" />
          <g
             style="clip-rule:evenodd;fill:none;fill-rule:nonzero;stroke:#000000;stroke-width:2;stroke-linejoin:round;stroke-dasharray:none"
             stroke-miterlimit="10"
             fill="none"
             id="strokes-213942e7-7893-80ea-8006-816f048d93b3-e5305367-cb53-80dc-8005-e4157446fd38"
             class="strokes">
            <g
               class="inner-stroke-shape"
               id="g21890"
               style="fill:none;stroke:#000000;stroke-width:2;stroke-dasharray:none">
              <defs
                 id="defs21886">
                <clipPath
                   id="clipPath21955">
                  <use
                     href="#stroke-shape-render-3490-e5305367-cb53-80dc-8005-e4157446fd38-0"
                     id="use21953" />
                </clipPath>
                <path
                   d="m 617.54694,-636.13165 c 1.65796,-3.13172 0.42138,-7.09827 -2.76447,-8.86176 -3.18591,-1.76343 -7.11407,-0.65399 -8.77203,2.47779 -1.65973,3.13171 -0.42322,7.09997 2.76269,8.86169 3.18592,1.76349 7.11408,0.65399 8.77381,-2.47772 z"
                   style="fill:none;stroke:#2f226c;stroke-width:6.01394;stroke-opacity:1"
                   id="path21957" />
              </defs>
              <use
                 href="#stroke-shape-render-3490-e5305367-cb53-80dc-8005-e4157446fd38-0"
                 clip-path="url(#inner-stroke-render-3490-e5305367-cb53-80dc-8005-e4157446fd38-0)"
                 id="use21888"
                 style="fill:none;stroke:#000000;stroke-width:2;stroke-dasharray:none" />
            </g>
          </g>
        </g>
        <g
           id="shape-e5305367-cb53-80dc-8005-e4157446fd39"
           style="fill:none;stroke:#000000;stroke-width:2;stroke-dasharray:none">
          <defs
             id="defs21894" />
          <g
             class="fills"
             id="fills-e5305367-cb53-80dc-8005-e4157446fd39"
             style="fill:none;stroke:#000000;stroke-width:2;stroke-dasharray:none" />
          <g
             id="strokes-213942e7-7893-80ea-8006-816f048dc142-e5305367-cb53-80dc-8005-e4157446fd39"
             class="strokes"
             style="fill:none;stroke:#000000;stroke-width:2;stroke-dasharray:none">
            <g
               class="stroke-shape"
               id="g21903"
               style="fill:none;stroke:#000000;stroke-width:2;stroke-dasharray:none">
              <defs
                 id="defs21899" />
            </g>
          </g>
        </g>
      </g>
      <g
         id="shape-e5305367-cb53-80dc-8005-e4157446fd35"
         style="fill:none;stroke:#000000;stroke-width:2;stroke-dasharray:none">
        <defs
           id="defs21908" />
        <g
           class="fills"
           id="fills-e5305367-cb53-80dc-8005-e4157446fd35"
           style="fill:none;stroke:#000000;stroke-width:2;stroke-dasharray:none">
          <path
             id="ellipse21910"
             transform="matrix(0.990933,0.134357,-0.133709,0.991021,-70.805422,-84.47143)"
             d="m 594.63952,-569.6026 c 0,4.15218 -1.79094,7.51818 -4.00018,7.51818 -2.20924,-10e-6 -4.00017,-3.36601 -4.00017,-7.51818 0,-4.15217 1.79093,-7.51817 4.00017,-7.51818 2.20924,0 4.00018,3.366 4.00018,7.51818 z m 14.11191,38.82653 c 0,0 -17.79713,-15.36521 -14.49325,-34.57874 2.22471,-12.93747 -4.98925,-15.12624 -9.29118,-10.59237 -4.30198,4.53393 -7.16429,19.73696 -3.53273,32.08426 m 16.30857,11.61632 c -1.93021,0.26169 -21.60859,-21.7621 -30.91582,-10.62364 -9.30723,11.13853 14.14957,24.74867 15.4254,19.63738 1.27584,-5.11129 -13.8059,-14.91862 -21.57561,-6.95154 -7.7697,7.96701 10.42011,26.24195 13.75695,21.8389 3.33685,-4.40309 -9.11135,-16.54271 -18.81121,-8.31403 -9.69986,8.22869 17.3066,26.29598 17.3066,26.29598 m 35.82228,-40.41252 c 0,0 -17.79713,-15.36521 -14.49325,-34.57874 2.22471,-12.93747 -4.98925,-15.12624 -9.29118,-10.59237 -4.30198,4.53393 -7.16429,19.73696 -3.53273,32.08426 m 16.30857,11.61632 c -1.93021,0.26169 -21.60859,-21.7621 -30.91582,-10.62364 -9.30723,11.13853 14.14957,24.74867 15.4254,19.63738 1.27584,-5.11129 -13.8059,-14.91862 -21.57561,-6.95154 -7.7697,7.96701 10.42011,26.24195 13.75695,21.8389 3.33685,-4.40309 -9.11135,-16.54271 -18.81121,-8.31403 -9.69986,8.22869 17.3066,26.29598 17.3066,26.29598 m 35.48047,-148.77963 c 1.22433,-3.32608 -0.53151,-7.09052 -3.92455,-8.40998 -3.39309,-1.31939 -7.13763,0.30776 -8.36196,3.63391 -1.22609,3.32631 0.52991,7.09245 3.92277,8.41015 3.39311,1.31945 7.13765,-0.30777 8.36374,-3.63408 z m 5.52909,9.77741 c 0,0 0.19227,13.84341 -15.87117,14.00683 -5.13523,0.0522 -8.69602,-1.56774 -11.1642,-3.79582 -5.25147,-4.7406 -5.55676,-12.23441 -5.55676,-12.23441 m 32.59213,2.0234 c 0,0 0.19227,13.84341 -15.87117,14.00683 -16.06125,0.16313 -16.72096,-16.03023 -16.72096,-16.03023 m -39.8503,143.08038 29.25268,-4.6367 c 0,0 43.31276,30.13474 82.9157,7.99123 39.60118,-22.14105 18.41711,-65.11285 -2.69372,-71.1962 -21.11295,-6.08306 -32.64782,-5.63798 -34.14825,-18.40478 -1.50072,-12.76897 41.65956,-21.62904 12.47976,-60.24933 -3.61144,-4.77993 -15.51781,-25.53018 -8.0342,-22.14779 17.19507,7.77183 19.60658,-11.75085 9.29474,-13.38376 -21.27564,-3.36905 -27.96242,-5.30177 -27.96242,-5.30177 0,0 -40.12243,-5.67376 -51.0515,18.03461 -4.08205,8.86031 1.74036,12.89803 -3.67027,17.6728 -4.30046,3.79289 -17.03513,8.37135 -9.80417,24.56616 1.1429,2.55974 -15.12257,4.8411 -6.69724,25.1553 2.69349,6.49427 13.90036,13.27003 24.21219,14.90295 12.9278,2.04713 18.69553,-3.54493 17.90003,-0.56054 -5.31014,19.91947 -45.79224,19.76707 -40.77764,55.37971 5.01241,35.61289 8.78431,32.17811 8.78431,32.17811 v 0"
             sodipodi:nodetypes="sssssccscccscsscccscccscssccccccccscccccccccccsccccsccccc" />
        </g>
      </g>
    </g>
  </g>
</svg>
