<svg xmlns="http://www.w3.org/2000/svg" fill="none" viewBox="470.7 -463.8 167.8 191.2">
  <g transform="translate(-50.4 -7.5)">
    <use stroke="currentColor" stroke-width="2" clip-path="url(#inner-stroke-render-2685-e5305367-cb53-80dc-8005-e4157446fd0c-0)" href="#stroke-shape-render-2685-e5305367-cb53-80dc-8005-e4157446fd0c-0"/>
    <path stroke="currentColor" stroke-linecap="round" stroke-width="2" d="M621-412.7c-1-3.4-26.7-34.2-40.2-40.8-19.1-9.2-7.3 31.3-.1 22.8 4-4.8-23-25-31.3-20-3.9 2.4-3.2 8.7 1.3 15 10.3 14.2 19.7 22.5 21.7 17.1 2.6-7-33.6-22.9-32.4-.6.7 12.5 22.8 12.3 22.8 12.3m58.2-5.8c-1-3.4-26.7-34.2-40.2-40.8-19.1-9.2-7.3 31.3-.1 22.8 4-4.8-23-25-31.3-20-3.9 2.4-3.2 8.7 1.3 15 10.3 14.2 19.7 22.5 21.7 17.2 2.6-7-33.6-23-32.4-.7.7 12.5 22.8 12.3 22.8 12.3m39-24.1c-11.8-3.1-49 2.6-32.5 37.5 16.6 35 12.1 51.7 37 58.5 24.9 6.8 43.4-30.4 38.1-47-5.3-16.7-21.8-43.6-42.6-49m-41.4 110s-45 45.6-36.8 53.5c8.2 7.9 54.8-34.5 47.3-37.5s-30.4 31.4-12.7 29.3c17.7-2 35.6-21.7 29.4-24.5-6.2-2.8-23.2 17-13.7 24.2 9.6 7.3 16-9.3 28.4-14.1 12.5-4.9 15.5 1.4 36 5.5 20.4 4 57-21.1 47.7-58.2-9.3-37-42.7-40-42.7-40m-83 61.9s-45 45.5-36.7 53.4c8.2 7.9 54.8-34.5 47.3-37.5s-30.4 31.4-12.7 29.3c17.7-2 35.6-21.7 29.4-24.5-6.2-2.8-23.2 17-13.7 24.2 9.6 7.3 16-9.3 28.4-14.1 12.5-4.9 15.5 1.4 36 5.4 20.4 4 57-21 47.7-58a51 51 0 0 0-42.7-40.1m-44.7-4.2a4.8 4.8 0 0 1-2-6.5 5 5 0 0 1 6.6-2.2 4.8 4.8 0 0 1 1.9 6.5 5 5 0 0 1-6.5 2.2zm0 0a4.8 4.8 0 0 1-2-6.5 5 5 0 0 1 6.6-2.2 4.8 4.8 0 0 1 1.9 6.5 5 5 0 0 1-6.5 2.2zm-5 12.1s8.3 9.5 19.4-.2c11.1-9.7 1.7-21 1.7-21m-21 21.2s8.2 9.5 19.3-.2c11.1-9.7 1.7-21 1.7-21"/>
  </g>
</svg>
